<svg height="512" viewBox="0 0 512 512" width="512" xmlns="http://www.w3.org/2000/svg"><g id="filled_outline" data-name="filled outline"><path d="m468.68018 100.68a16.00878 16.00878 0 0 0 11.31982 27.32h8v256h-8a16 16 0 0 0 0 32h8v72h-464v-80h8a16 16 0 1 0 0-32h-8v-184h8a16 16 0 1 0 0-32h-8v-136h464v72h-8a15.98649 15.98649 0 0 0 -11.31982 4.68z" fill="#02c26a"/><path d="m400 200v104a15.97886 15.97886 0 0 0 16 16 15.99568 15.99568 0 0 1 16 16v104a15.99571 15.99571 0 0 1 -16 16h-40a15.97886 15.97886 0 0 1 -16-16 15.99568 15.99568 0 0 0 -16-16h-32v16a15.99571 15.99571 0 0 1 -16 16h-80a15.99555 15.99555 0 0 1 -16-16v-16h-32a15.97843 15.97843 0 0 0 -16 16 15.99555 15.99555 0 0 1 -16 16h-40a15.99555 15.99555 0 0 1 -16-16v-48a15.99552 15.99552 0 0 1 16-16 15.99555 15.99555 0 0 0 16-16v-104a15.97843 15.97843 0 0 0 -16-16 15.99555 15.99555 0 0 1 -16-16v-48a15.99552 15.99552 0 0 1 16-16h16a15.99555 15.99555 0 0 0 16-16v-40a15.99552 15.99552 0 0 1 16-16h56v-16a15.99552 15.99552 0 0 1 16-16h80a15.99568 15.99568 0 0 1 16 16v16h32a15.99571 15.99571 0 0 0 16-16 15.99568 15.99568 0 0 1 16-16h40a15.99568 15.99568 0 0 1 16 16v96a15.99571 15.99571 0 0 1 -16 16 15.99568 15.99568 0 0 0 -16 16z" fill="#ffd873"/><path d="m56 56h40v40h-40z" fill="#e0edff"/><g fill="#ffc431"><rect height="272" rx="32" width="208" x="160" y="120"/><path d="m312 72v16h-112v-16a15.99552 15.99552 0 0 1 16-16h80a15.99568 15.99568 0 0 1 16 16z"/><path d="m312 424v16a15.99571 15.99571 0 0 1 -16 16h-80a15.99555 15.99555 0 0 1 -16-16v-16z"/></g><path d="m24.00012 496h464a8.00008 8.00008 0 0 0 8-8v-72a8.00008 8.00008 0 0 0 -8-8h-8a8 8 0 1 1 0-16h8a8.00008 8.00008 0 0 0 8-8v-256a8.00008 8.00008 0 0 0 -8-8h-8a8 8 0 1 1 0-16h8a8.00008 8.00008 0 0 0 8-8v-72a8.00008 8.00008 0 0 0 -8-8h-464a8.00008 8.00008 0 0 0 -8 8v136a8.00008 8.00008 0 0 0 8 8h8a8 8 0 1 1 0 16h-8a8.00008 8.00008 0 0 0 -8 8v184a8.00008 8.00008 0 0 0 8 8h8a8 8 0 0 1 0 16h-8a8.00008 8.00008 0 0 0 -8 8v80a8.00008 8.00008 0 0 0 8 8zm8-80a24 24 0 1 0 0-48v-168a24 24 0 1 0 0-48v-120h448v56a23.88542 23.88542 0 0 0 -16.96679 7.01318l-.02051.02a24.00919 24.00919 0 0 0 16.9873 40.96682v240a24 24 0 1 0 0 48v56h-448z"/><path d="m56.00012 104h40a8.00008 8.00008 0 0 0 8-8v-40a8.00008 8.00008 0 0 0 -8-8h-40a8.00008 8.00008 0 0 0 -8 8v40a8.00008 8.00008 0 0 0 8 8zm8-40h24v24h-24z"/><path d="m48 120h16v16h-16z"/><path d="m48 264h16v16h-16z"/><path d="m72 264h16v16h-16z"/><path d="m48 288h16v16h-16z"/><path d="m72 288h16v16h-16z"/><path d="m48 312h16v16h-16z"/><path d="m72 312h16v16h-16z"/><path d="m424 208h16v16h-16z"/><path d="m448 208h16v16h-16z"/><path d="m424 232h16v16h-16z"/><path d="m448 232h16v16h-16z"/><path d="m424 256h16v16h-16z"/><path d="m448 256h16v16h-16z"/><path d="m80 120h24v16h-24z"/><path d="m336.00012 112h-144a40.04552 40.04552 0 0 0 -40 40v208a40.04552 40.04552 0 0 0 40 40h144a40.04551 40.04551 0 0 0 40-40v-208a40.04551 40.04551 0 0 0 -40-40zm24 248a24.0275 24.0275 0 0 1 -24 24h-144a24.0275 24.0275 0 0 1 -24-24v-208a24.0275 24.0275 0 0 1 24-24h144a24.0275 24.0275 0 0 1 24 24z"/><path d="m416.00012 48h-40a24.02718 24.02718 0 0 0 -24 24 8.00917 8.00917 0 0 1 -8 8h-24v-8a24.02718 24.02718 0 0 0 -24-24h-80a24.02718 24.02718 0 0 0 -24 24v8h-48a24.02718 24.02718 0 0 0 -24 24v40a8.00917 8.00917 0 0 1 -8 8h-16a24.02718 24.02718 0 0 0 -24 24v48a24.02718 24.02718 0 0 0 24 24 8.00917 8.00917 0 0 1 8 8v104a8.00917 8.00917 0 0 1 -8 8 24.02718 24.02718 0 0 0 -24 24v48a24.02718 24.02718 0 0 0 24 24h40a24.02718 24.02718 0 0 0 24-24 8.00917 8.00917 0 0 1 8-8h24v8a24.02718 24.02718 0 0 0 24 24h80a24.02718 24.02718 0 0 0 24-24v-8h24a8.00917 8.00917 0 0 1 8 8 24.02718 24.02718 0 0 0 24 24h40a24.02718 24.02718 0 0 0 24-24v-104a24.02718 24.02718 0 0 0 -24-24 8.00917 8.00917 0 0 1 -8-8v-104a8.00917 8.00917 0 0 1 8-8 24.02718 24.02718 0 0 0 24-24v-96a24.02718 24.02718 0 0 0 -24-24zm8 120a8.00917 8.00917 0 0 1 -8 8 24.02718 24.02718 0 0 0 -24 24v104a24.02718 24.02718 0 0 0 24 24 8.00917 8.00917 0 0 1 8 8v104a8.00917 8.00917 0 0 1 -8 8h-40a8.00917 8.00917 0 0 1 -8-8 24.02718 24.02718 0 0 0 -24-24h-72v16h32v8a8.00917 8.00917 0 0 1 -8 8h-80a8.00917 8.00917 0 0 1 -8-8v-8h40v-16h-80a24.02718 24.02718 0 0 0 -24 24 8.00917 8.00917 0 0 1 -8 8h-40a8.00917 8.00917 0 0 1 -8-8v-48a8.00917 8.00917 0 0 1 8-8 24.02718 24.02718 0 0 0 24-24v-104a24.02718 24.02718 0 0 0 -24-24 8.00917 8.00917 0 0 1 -8-8v-48a8.00917 8.00917 0 0 1 8-8h16a24.02718 24.02718 0 0 0 24-24v-40a8.00917 8.00917 0 0 1 8-8h56a8.00008 8.00008 0 0 0 8-8v-16a8.00917 8.00917 0 0 1 8-8h80a8.00917 8.00917 0 0 1 8 8v8h-32v16h72a24.02718 24.02718 0 0 0 24-24 8.00917 8.00917 0 0 1 8-8h40a8.00917 8.00917 0 0 1 8 8z"/></g></svg>