<?xml version="1.0" encoding="iso-8859-1"?>
<!-- Generator: Adobe Illustrator 16.0.0, SVG Export Plug-In . SVG Version: 6.00 Build 0)  -->
<!DOCTYPE svg PUBLIC "-//W3C//DTD SVG 1.1//EN" "http://www.w3.org/Graphics/SVG/1.1/DTD/svg11.dtd">
<svg version="1.1" id="Capa_1" xmlns="http://www.w3.org/2000/svg" xmlns:xlink="http://www.w3.org/1999/xlink" x="0px" y="0px"
	 width="369.819px" height="369.819px" viewBox="0 0 369.819 369.819" style="enable-background:new 0 0 369.819 369.819;"
	 xml:space="preserve">
<g>
	<path d="M7.393,0h65.896v369.819H49.082V24.205H7.393V0z M338.557,53.792c24.876,0,23.864,18.49,23.864,18.49v148.77l-28.58,27.727
		h-0.252v-37.308h-8.315v37.308h-21.688v-73.62h-85.729v-71.61h-76.647v79.886h76.647v-0.205h77.67v65.549h-31.265v-37.308h-8.073
		v37.308h-22.439v-37.308h-8.072v37.308h-24.962v-37.308h-8.073v37.308H178.02V233.15h-66.063v15.628h-18.49V53.792
		C93.466,53.792,313.67,53.792,338.557,53.792z M310.645,103.543h-48.41v48.419h48.41V103.543z M303.691,109.938H268.45v35.24
		h35.241V109.938z M213.194,128.512v-3.278h-6.13v-10.993h-56.081v10.993h-6.124v3.278h6.124v7.571h-6.124v3.277h6.124v8.219h-6.124
		v3.278h6.124v6.555h-6.124v3.278h6.124v9.639h56.081v-9.639h6.118v-3.278h-6.118v-6.555h6.118v-3.278h-6.118v-8.224h6.118v-3.278
		h-6.118v-7.571h6.13V128.512z" fill="white"/>
</g>
<g>
</g>
<g>
</g>
<g>
</g>
<g>
</g>
<g>
</g>
<g>
</g>
<g>
</g>
<g>
</g>
<g>
</g>
<g>
</g>
<g>
</g>
<g>
</g>
<g>
</g>
<g>
</g>
<g>
</g>
</svg>
