<svg id="Capa_1" enable-background="new 0 0 512 512" height="512" viewBox="0 0 512 512" width="512" xmlns="http://www.w3.org/2000/svg"><g><g><g><g><g><g><g><ellipse cx="256" cy="256" fill="#ff9500" rx="256" ry="256" transform="matrix(.707 -.707 .707 .707 -106.039 256)"/></g></g></g></g></g></g><path d="m512 256c0-13.464-1.04-26.685-3.043-39.587l-103.772-103.772-296.801 288.451 107.836 107.836c12.963 2.023 26.249 3.072 39.78 3.072 141.385 0 256-114.615 256-256z" fill="#fe6a16"/><g><path d="m361.669 419.238h-211.338c-31.794 0-57.569-25.774-57.569-57.569v-211.338c0-31.794 25.774-57.569 57.569-57.569h211.338c31.794 0 57.569 25.774 57.569 57.569v211.338c-.001 31.794-25.775 57.569-57.569 57.569z" fill="#555a66"/></g><g><path d="m361.669 92.763h-105.548v326.475h105.548c31.794 0 57.568-25.774 57.568-57.568v-211.339c0-31.794-25.774-57.568-57.568-57.568z" fill="#333940"/></g><g><path d="m361.556 169.002c0-13.889-11.259-25.147-25.148-25.147h-160.817c-13.889 0-25.147 11.259-25.147 25.147v118.297h30.624v41.188h27.809v39.659h94.245v-39.659h27.809v-41.188h30.624v-118.297z" fill="#fff"/></g><g><path d="m336.409 143.854h-80.288v224.292h47.002v-39.659h27.809v-41.188h30.625v-118.297c-.001-13.889-11.26-25.148-25.148-25.148z" fill="#e9edf5"/></g><g><g><path d="m183.009 143.854h30v64.775h-30z" fill="#ffce00"/></g><g><path d="m298.991 143.854h30v64.775h-30z" fill="#fdba12"/></g></g><g><path d="m241 143.854h30v64.775h-30z" fill="#ffce00"/></g><g><path d="m256.121 143.854h14.88v64.775h-14.88z" fill="#fdba12"/></g></g></svg>