<?xml version="1.0" encoding="iso-8859-1"?>
<!-- Generator: Adobe Illustrator 19.0.0, SVG Export Plug-In . SVG Version: 6.00 Build 0)  -->
<svg version="1.1" id="Capa_1" xmlns="http://www.w3.org/2000/svg" xmlns:xlink="http://www.w3.org/1999/xlink" x="0px" y="0px"
	 viewBox="0 0 469.333 469.333" style="enable-background:new 0 0 469.333 469.333;" xml:space="preserve">
<path style="fill:#303C42;" d="M437.333,85.333h-10.667v-32c0-5.896-4.771-10.667-10.667-10.667H288
	c-5.896,0-10.667,4.771-10.667,10.667v32h-10.667C260.771,85.333,256,90.104,256,96v106.667c0,5.896,4.771,10.667,10.667,10.667
	h10.667v149.333c0,30.613-16.238,58.293-42.458,73.578C209.379,421.47,192,394.194,192,362.667v-192h10.667
	c5.896,0,10.667-4.771,10.667-10.667V53.333c0-5.896-4.771-10.667-10.667-10.667H192v-32C192,4.771,187.229,0,181.333,0h-128
	c-5.896,0-10.667,4.771-10.667,10.667v32H32c-5.896,0-10.667,4.771-10.667,10.667V160c0,5.896,4.771,10.667,10.667,10.667h10.667
	v170.667c0,70.583,57.417,128,128,128h106.667h21.333c70.583,0,128-57.417,128-128v-128h10.667c5.896,0,10.667-4.771,10.667-10.667
	V96C448,90.104,443.229,85.333,437.333,85.333z"/>
<rect x="42.667" y="64" style="fill:#78909C;" width="149.333" height="85.333"/>
<path style="fill:#EF5350;" d="M170.667,448C111.854,448,64,400.146,64,341.333V170.667h106.667v192
	c0,35.014,17.189,65.872,43.327,85.333H170.667z"/>
<rect x="42.667" y="64" style="opacity:0.2;fill:#FFFFFF;enable-background:new    ;" width="20.672" height="85.333"/>
<rect x="171.307" y="64" style="opacity:0.1;enable-background:new    ;" width="20.672" height="85.333"/>
<path style="opacity:0.2;fill:#FFFFFF;enable-background:new    ;" d="M84.673,341.333V170.667H64v170.667
	C64,400.146,111.854,448,170.667,448h20.673C132.527,448,84.673,400.146,84.673,341.333z"/>
<path style="fill:#EF5350;" d="M405.333,341.333c0,58.813-47.854,106.667-106.667,106.667h-21.333
	c-6.479,0-12.732-0.867-18.801-2.241c25.055-19.997,40.134-50.169,40.134-83.092V213.333h106.667V341.333z"/>
<path style="opacity:0.1;enable-background:new    ;" d="M370.801,213.333v96c0,51.56-36.788,94.671-85.486,104.525
	c-6.734,12.165-15.714,23.066-26.783,31.901c6.069,1.374,12.322,2.241,18.801,2.241h21.333c58.813,0,106.667-47.854,106.667-106.667
	v-128H370.801z"/>
<rect x="277.333" y="106.667" style="fill:#78909C;" width="149.333" height="85.333"/>
<rect x="405.333" y="106.667" style="opacity:0.1;enable-background:new    ;" width="20.672" height="85.333"/>
<rect x="277.973" y="106.667" style="opacity:0.2;fill:#FFFFFF;enable-background:new    ;" width="20.672" height="85.333"/>
<g>
	<path style="fill:#303C42;" d="M164.875,86.615c-5.146-2.708-11.583-0.656-14.354,4.479c-0.333,0.635-8.667,15.573-33.188,15.573
		c-24.333,0-32.729-14.719-33.188-15.563c-2.667-5.167-8.979-7.229-14.25-4.646c-5.271,2.635-7.396,9.042-4.771,14.313
		C65.688,101.885,79.188,128,117.333,128s51.646-26.115,52.208-27.229C172.146,95.563,170.042,89.292,164.875,86.615z"/>
	<path style="fill:#303C42;" d="M352,170.667c38.146,0,51.646-26.115,52.208-27.229c2.604-5.208,0.5-11.479-4.667-14.156
		c-5.146-2.719-11.583-0.667-14.354,4.479c-0.333,0.635-8.667,15.573-33.188,15.573c-24.333,0-32.729-14.719-33.188-15.563
		c-2.688-5.177-9-7.219-14.25-4.646c-5.271,2.635-7.396,9.042-4.771,14.313C300.354,144.552,313.854,170.667,352,170.667z"/>
</g>
<g>
	<path style="fill:#546E7A;" d="M298.667,64H320c0,5.896,4.771,10.667,10.667,10.667c5.896,0,10.667-4.771,10.667-10.667h64v21.333
		H298.667V64z"/>
	<path style="fill:#546E7A;" d="M64,21.333h21.333C85.333,27.229,90.104,32,96,32c5.896,0,10.667-4.771,10.667-10.667h64v21.333H64
		V21.333z"/>
</g>
<linearGradient id="SVGID_1_" gradientUnits="userSpaceOnUse" x1="-67.5494" y1="618.5179" x2="-46.2202" y2="608.5719" gradientTransform="matrix(21.3333 0 0 -21.3333 1430.1112 13315.2227)">
	<stop  offset="0" style="stop-color:#FFFFFF;stop-opacity:0.2"/>
	<stop  offset="1" style="stop-color:#FFFFFF;stop-opacity:0"/>
</linearGradient>
<path style="fill:url(#SVGID_1_);" d="M437.333,85.333h-10.667v-32c0-5.896-4.771-10.667-10.667-10.667H288
	c-5.896,0-10.667,4.771-10.667,10.667v32h-10.667C260.771,85.333,256,90.104,256,96v106.667c0,5.896,4.771,10.667,10.667,10.667
	h10.667v149.333c0,30.613-16.238,58.293-42.458,73.578C209.379,421.47,192,394.194,192,362.667v-192h10.667
	c5.896,0,10.667-4.771,10.667-10.667V53.333c0-5.896-4.771-10.667-10.667-10.667H192v-32C192,4.771,187.229,0,181.333,0h-128
	c-5.896,0-10.667,4.771-10.667,10.667v32H32c-5.896,0-10.667,4.771-10.667,10.667V160c0,5.896,4.771,10.667,10.667,10.667h10.667
	v170.667c0,70.583,57.417,128,128,128h106.667h21.333c70.583,0,128-57.417,128-128v-128h10.667c5.896,0,10.667-4.771,10.667-10.667
	V96C448,90.104,443.229,85.333,437.333,85.333z"/>
<g>
</g>
<g>
</g>
<g>
</g>
<g>
</g>
<g>
</g>
<g>
</g>
<g>
</g>
<g>
</g>
<g>
</g>
<g>
</g>
<g>
</g>
<g>
</g>
<g>
</g>
<g>
</g>
<g>
</g>
</svg>
