<svg height="512" viewBox="0 0 64 64" width="512" xmlns="http://www.w3.org/2000/svg"><g id="flat"><path d="m28 3h4v6h-4z" fill="#f9bb4b"/><path d="m24 3h4v6h-4z" fill="#fcf05a"/><path d="m20 3h4v6h-4z" fill="#f9bb4b"/><path d="m44 3h4v6h-4z" fill="#fcf05a"/><path d="m40 3h4v6h-4z" fill="#f9bb4b"/><path d="m36 3h4v6h-4z" fill="#fcf05a"/><path d="m16 3h4v6h-4z" fill="#fcf05a"/><path d="m12 5h4v4h32v-4h4v56h-40z" fill="#55b56a"/><path d="m16 9h2v3h-2z" fill="#72edc5"/><path d="m46 9h2v3h-2z" fill="#72edc5"/><path d="m30 9h2v3h-2z" fill="#72edc5"/><path d="m36 9h2v3h-2z" fill="#72edc5"/><circle cx="18" cy="55" fill="#f4f4e6" r="2"/><circle cx="18" cy="17" fill="#f4f4e6" r="2"/><circle cx="46" cy="55" fill="#f4f4e6" r="2"/><circle cx="46" cy="17" fill="#f4f4e6" r="2"/><path d="m16 23h32v26h-32z" fill="#394d5c"/><g fill="#f9bb4b"><path d="m19 42h2v4h-2z"/><path d="m23 42h2v4h-2z"/><path d="m27 42h2v4h-2z"/><path d="m33 42h2v4h-2z"/><path d="m37 42h2v4h-2z"/></g><path d="m21.5 36h-2.5v-2h2.5a.5.5 0 0 0 .5-.5v-1a.5.5 0 0 0 -.5-.5 2.5 2.5 0 0 1 -2.5-2.5v-1a2.5 2.5 0 0 1 2.5-2.5h2.5v2h-2.5a.5.5 0 0 0 -.5.5v1a.5.5 0 0 0 .5.5 2.5 2.5 0 0 1 2.5 2.5v1a2.5 2.5 0 0 1 -2.5 2.5z" fill="#fcf05a"/><path d="m28.5 36h-2.5v-2h2.5a.5.5 0 0 0 .5-.5v-1a.5.5 0 0 0 -.5-.5 2.5 2.5 0 0 1 -2.5-2.5v-1a2.5 2.5 0 0 1 2.5-2.5h2.5v2h-2.5a.5.5 0 0 0 -.5.5v1a.5.5 0 0 0 .5.5 2.5 2.5 0 0 1 2.5 2.5v1a2.5 2.5 0 0 1 -2.5 2.5z" fill="#fcf05a"/><path d="m37 36h-3a1 1 0 0 1 -1-1v-8a1 1 0 0 1 1-1h3a3 3 0 0 1 3 3v4a3 3 0 0 1 -3 3zm-2-2h2a1 1 0 0 0 1-1v-4a1 1 0 0 0 -1-1h-2z" fill="#fcf05a"/><path d="m19 38h26v2h-26z" fill="#f4f4e6"/></g></svg>