<?xml version="1.0" encoding="iso-8859-1"?>
<!-- Generator: Adobe Illustrator 19.0.0, SVG Export Plug-In . SVG Version: 6.00 Build 0)  -->
<svg version="1.1" id="Capa_1" xmlns="http://www.w3.org/2000/svg" xmlns:xlink="http://www.w3.org/1999/xlink" x="0px" y="0px"
	 viewBox="0 0 512 512" style="enable-background:new 0 0 512 512;" xml:space="preserve">
<path style="fill:#E5E4D3;" d="M509.569,114.127L315.762,307.934L204.065,196.237L397.871,2.43c3.24-3.24,8.493-3.24,11.733,0
	l99.964,99.964C512.809,105.634,512.809,110.887,509.569,114.127z"/>
<g>
	
		<rect x="231.706" y="105.014" transform="matrix(-0.7071 0.7071 -0.7071 -0.7071 690.0425 82.1619)" style="fill:#C1BFA4;" width="192.598" height="157.958"/>
	<path style="fill:#C1BFA4;" d="M393.378,77.498l-2.991-2.991c-3.24-3.24-3.24-8.493,0-11.733l2.991-2.991
		c3.24-3.24,8.493-3.24,11.733,0l2.991,2.991c3.24,3.24,3.24,8.493,0,11.733l-2.991,2.991
		C401.871,80.738,396.618,80.738,393.378,77.498z"/>
	<path style="fill:#C1BFA4;" d="M437.495,121.614l-2.991-2.991c-3.24-3.24-3.24-8.493,0-11.733l2.991-2.991
		c3.24-3.24,8.493-3.24,11.733,0l2.991,2.991c3.24,3.24,3.24,8.493,0,11.733l-2.991,2.991
		C445.988,124.854,440.735,124.854,437.495,121.614z"/>
</g>
<path style="fill:#FEC007;" d="M34.808,477.193L34.808,477.193c-46.409-46.409-46.409-121.652,0-168.06L279.799,64.141
	c3.24-3.24,8.493-3.24,11.733,0L447.86,220.469c3.24,3.24,3.24,8.493,0,11.733L202.868,477.193
	C156.46,523.602,81.216,523.602,34.808,477.193z"/>
<path style="fill:#E5E4D3;" d="M136.383,376.799c-1.991,0-3.981-0.76-5.5-2.278c-3.038-3.038-3.038-7.963,0-11.001l131.642-131.642
	c3.037-3.036,7.963-3.036,11,0c3.038,3.038,3.038,7.963,0,11.001L141.883,374.521C140.364,376.039,138.373,376.799,136.383,376.799z
	"/>
<path style="fill:#FE9700;" d="M431.668,204.277L200.756,435.189c-46.409,46.409-121.652,46.409-168.06,0h-0.001
	C16.387,418.881,5.834,399.007,0.988,378.08c-4.482,35.222,6.77,72.064,33.82,99.113h0.001c46.409,46.409,121.652,46.409,168.06,0
	L447.86,232.202c3.24-3.24,3.24-8.493,0-11.733L431.668,204.277z"/>
<g>
	<path style="fill:#E5E4D3;" d="M250.787,329.985c-9.854,0-19.707-3.751-27.209-11.252l-18.454-18.454
		c-3.038-3.038-3.038-7.963,0-11.001c3.037-3.036,7.963-3.037,11,0.001l18.454,18.454c8.939,8.937,23.482,8.937,32.419-0.001
		l14.817-14.817c3.038-3.038,7.962-3.037,11-0.001c3.037,3.037,3.038,7.963,0,11l-14.817,14.818
		C270.495,326.233,260.641,329.985,250.787,329.985z"/>
	<path style="fill:#E5E4D3;" d="M179.612,333.57c-1.991,0-3.981-0.76-5.5-2.278l-16.695-16.695
		c-11.203-11.203-11.203-29.433,0-40.636l34.46-34.459c3.037-3.036,7.963-3.036,11,0c3.038,3.038,3.038,7.963,0,11.001
		l-34.46,34.459c-5.138,5.137-5.138,13.497,0,18.634l16.695,16.695c3.038,3.038,3.038,7.963,0,11
		C183.593,332.81,181.602,333.57,179.612,333.57z"/>
</g>
<g>
	<circle style="fill:#2195F2;" cx="136.38" cy="369.02" r="20.2"/>
	<circle style="fill:#2195F2;" cx="268.02" cy="237.38" r="16.08"/>
	<circle style="fill:#2195F2;" cx="287.31" cy="298.41" r="16.08"/>
	<circle style="fill:#2195F2;" cx="198.75" cy="243.62" r="16.08"/>
</g>
<g>
</g>
<g>
</g>
<g>
</g>
<g>
</g>
<g>
</g>
<g>
</g>
<g>
</g>
<g>
</g>
<g>
</g>
<g>
</g>
<g>
</g>
<g>
</g>
<g>
</g>
<g>
</g>
<g>
</g>
</svg>
